<?xml version="1.0" encoding="UTF-8"?>
<!DOCTYPE svg PUBLIC "-//W3C//DTD SVG 1.1//EN" "http://www.w3.org/Graphics/SVG/1.1/DTD/svg11.dtd">
<svg version="1.1" xmlns="http://www.w3.org/2000/svg" xmlns:xlink="http://www.w3.org/1999/xlink" x="0" y="0" width="116.375" height="87.15" viewBox="0, 0, 116.375, 87.15">
  <g id="Layer_1" transform="translate(-43.789, -35.814)">
    <g>
      <path d="M45.789,44.245 L140.165,44.245 L140.165,120.964 L45.789,120.964 L45.789,44.245 z" fill="#FFFFFF"/>
      <g>
        <g id="Layer_1">
          <g>
            <path d="M141.668,43.745 L46.289,43.745 C45.738,43.745 45.289,44.194 45.289,44.745 L45.289,121.464 C45.289,122.015 45.738,122.464 46.289,122.464 L141.664,122.464 C142.215,122.464 142.664,122.015 142.664,121.464 L142.664,44.745 C142.668,44.19 142.219,43.745 141.668,43.745 z M140.668,45.745 L140.668,55.831 L47.289,55.831 L47.289,45.745 z M77.645,120.464 L47.29,120.464 L47.29,57.831 L140.665,57.831 L140.665,120.464 z" fill="#000000"/>
            <path d="M141.668,43.745 L46.289,43.745 C45.738,43.745 45.289,44.194 45.289,44.745 L45.289,121.464 C45.289,122.015 45.738,122.464 46.289,122.464 L141.664,122.464 C142.215,122.464 142.664,122.015 142.664,121.464 L142.664,44.745 C142.668,44.19 142.219,43.745 141.668,43.745 z M140.668,45.745 L140.668,55.831 L47.289,55.831 L47.289,45.745 z M77.645,120.464 L47.29,120.464 L47.29,57.831 L140.665,57.831 L140.665,120.464 z" fill-opacity="0" stroke="#000000" stroke-width="1"/>
          </g>
          <g>
            <path d="M52.883,53.709 C54.582,53.709 55.961,52.33 55.961,50.631 C55.961,48.932 54.582,47.553 52.883,47.553 C51.188,47.553 49.805,48.932 49.805,50.631 C49.805,52.326 51.184,53.709 52.883,53.709 z M52.883,49.557 C53.477,49.557 53.961,50.037 53.961,50.635 C53.961,51.228 53.477,51.713 52.883,51.713 C52.285,51.713 51.805,51.228 51.805,50.635 C51.805,50.037 52.289,49.557 52.883,49.557 z" fill="#000000"/>
            <path d="M52.883,53.709 C54.582,53.709 55.961,52.33 55.961,50.631 C55.961,48.932 54.582,47.553 52.883,47.553 C51.188,47.553 49.805,48.932 49.805,50.631 C49.805,52.326 51.184,53.709 52.883,53.709 z M52.883,49.557 C53.477,49.557 53.961,50.037 53.961,50.635 C53.961,51.228 53.477,51.713 52.883,51.713 C52.285,51.713 51.805,51.228 51.805,50.635 C51.805,50.037 52.289,49.557 52.883,49.557 z" fill-opacity="0" stroke="#000000" stroke-width="1"/>
          </g>
          <g>
            <path d="M58.856,51.635 L63.153,51.635 C63.704,51.635 64.153,51.186 64.153,50.635 C64.153,50.084 63.704,49.635 63.153,49.635 L58.856,49.635 C58.305,49.635 57.856,50.084 57.856,50.635 C57.856,51.182 58.305,51.635 58.856,51.635 z" fill="#000000"/>
            <path d="M58.856,51.635 L63.153,51.635 C63.704,51.635 64.153,51.186 64.153,50.635 C64.153,50.084 63.704,49.635 63.153,49.635 L58.856,49.635 C58.305,49.635 57.856,50.084 57.856,50.635 C57.856,51.182 58.305,51.635 58.856,51.635 z" fill-opacity="0" stroke="#000000" stroke-width="1"/>
          </g>
          <g>
            <path d="M67.344,50.635 L66.254,51.725 C65.863,52.111 65.863,52.748 66.254,53.139 C66.449,53.334 66.707,53.432 66.961,53.432 C67.219,53.432 67.473,53.334 67.668,53.139 L68.758,52.049 L69.848,53.139 C70.047,53.334 70.301,53.432 70.555,53.432 C70.809,53.432 71.066,53.334 71.262,53.139 C71.652,52.748 71.652,52.111 71.262,51.725 L70.172,50.635 L71.266,49.541 C71.656,49.154 71.656,48.518 71.266,48.131 C70.879,47.74 70.242,47.74 69.852,48.131 L68.758,49.225 L67.664,48.131 C67.273,47.74 66.641,47.74 66.25,48.131 C65.859,48.518 65.859,49.154 66.25,49.541 z" fill="#000000"/>
            <path d="M67.344,50.635 L66.254,51.725 C65.863,52.111 65.863,52.748 66.254,53.139 C66.449,53.334 66.707,53.432 66.961,53.432 C67.219,53.432 67.473,53.334 67.668,53.139 L68.758,52.049 L69.848,53.139 C70.047,53.334 70.301,53.432 70.555,53.432 C70.809,53.432 71.066,53.334 71.262,53.139 C71.652,52.748 71.652,52.111 71.262,51.725 L70.172,50.635 L71.266,49.541 C71.656,49.154 71.656,48.518 71.266,48.131 C70.879,47.74 70.242,47.74 69.852,48.131 L68.758,49.225 L67.664,48.131 C67.273,47.74 66.641,47.74 66.25,48.131 C65.859,48.518 65.859,49.154 66.25,49.541 z" fill-opacity="0" stroke="#000000" stroke-width="1"/>
          </g>
          <g>
            <path d="M53.598,62.319 C53.598,62.768 53.657,63.19 53.723,63.655 C53.782,64.069 53.844,64.498 53.844,64.92 C53.844,65.37 53.77,65.772 52.887,65.772 L52.586,65.772 L52.586,67.166 L52.887,67.166 C53.735,67.166 53.844,67.596 53.844,68.018 C53.844,68.424 53.782,68.854 53.723,69.233 C53.657,69.682 53.598,70.123 53.598,70.553 C53.598,72.123 54.504,72.987 56.153,72.987 L56.778,72.987 L56.778,71.53 L56.2,71.53 C55.539,71.53 55.266,71.225 55.266,70.475 C55.266,70.139 55.309,69.815 55.371,69.401 C55.45,68.944 55.485,68.553 55.485,68.178 C55.5,67.389 55.242,66.803 54.754,66.455 C55.164,66.17 55.5,65.662 55.485,64.76 C55.485,64.295 55.43,63.889 55.371,63.53 C55.325,63.233 55.266,62.838 55.266,62.475 C55.266,61.717 55.52,61.436 56.2,61.436 L56.778,61.436 L56.778,59.979 L56.153,59.979 C54.528,59.979 53.598,60.83 53.598,62.319 z" fill="#000000"/>
            <path d="M53.598,62.319 C53.598,62.768 53.657,63.19 53.723,63.655 C53.782,64.069 53.844,64.498 53.844,64.92 C53.844,65.37 53.77,65.772 52.887,65.772 L52.586,65.772 L52.586,67.166 L52.887,67.166 C53.735,67.166 53.844,67.596 53.844,68.018 C53.844,68.424 53.782,68.854 53.723,69.233 C53.657,69.682 53.598,70.123 53.598,70.553 C53.598,72.123 54.504,72.987 56.153,72.987 L56.778,72.987 L56.778,71.53 L56.2,71.53 C55.539,71.53 55.266,71.225 55.266,70.475 C55.266,70.139 55.309,69.815 55.371,69.401 C55.45,68.944 55.485,68.553 55.485,68.178 C55.5,67.389 55.242,66.803 54.754,66.455 C55.164,66.17 55.5,65.662 55.485,64.76 C55.485,64.295 55.43,63.889 55.371,63.53 C55.325,63.233 55.266,62.838 55.266,62.475 C55.266,61.717 55.52,61.436 56.2,61.436 L56.778,61.436 L56.778,59.979 L56.153,59.979 C54.528,59.979 53.598,60.83 53.598,62.319 z" fill-opacity="0" stroke="#000000" stroke-width="1"/>
          </g>
          <g>
            <path d="M55.52,110.241 C55.52,109.827 55.582,109.397 55.649,108.917 C55.707,108.483 55.766,108.077 55.766,107.639 C55.766,106.155 54.828,105.303 53.192,105.303 L52.582,105.303 L52.582,106.76 L53.157,106.76 C53.84,106.772 54.094,107.053 54.094,107.8 C54.094,108.065 54.055,108.342 54.02,108.635 L53.985,108.897 C53.926,109.272 53.86,109.659 53.86,110.089 C53.86,110.987 54.196,111.499 54.602,111.784 C54.118,112.128 53.86,112.717 53.86,113.499 C53.86,113.96 53.93,114.389 53.985,114.717 L54.02,114.987 C54.059,115.272 54.094,115.534 54.094,115.803 C54.094,116.542 53.817,116.846 53.149,116.854 L52.586,116.858 L52.586,118.315 L53.211,118.315 C54.86,118.315 55.766,117.448 55.766,115.878 C55.766,115.428 55.7,114.967 55.641,114.553 C55.578,114.135 55.516,113.737 55.516,113.343 C55.516,112.921 55.633,112.491 56.477,112.491 L56.774,112.491 L56.774,111.096 L56.481,111.093 C55.594,111.093 55.52,110.694 55.52,110.241 z" fill="#000000"/>
            <path d="M55.52,110.241 C55.52,109.827 55.582,109.397 55.649,108.917 C55.707,108.483 55.766,108.077 55.766,107.639 C55.766,106.155 54.828,105.303 53.192,105.303 L52.582,105.303 L52.582,106.76 L53.157,106.76 C53.84,106.772 54.094,107.053 54.094,107.8 C54.094,108.065 54.055,108.342 54.02,108.635 L53.985,108.897 C53.926,109.272 53.86,109.659 53.86,110.089 C53.86,110.987 54.196,111.499 54.602,111.784 C54.118,112.128 53.86,112.717 53.86,113.499 C53.86,113.96 53.93,114.389 53.985,114.717 L54.02,114.987 C54.059,115.272 54.094,115.534 54.094,115.803 C54.094,116.542 53.817,116.846 53.149,116.854 L52.586,116.858 L52.586,118.315 L53.211,118.315 C54.86,118.315 55.766,117.448 55.766,115.878 C55.766,115.428 55.7,114.967 55.641,114.553 C55.578,114.135 55.516,113.737 55.516,113.343 C55.516,112.921 55.633,112.491 56.477,112.491 L56.774,112.491 L56.774,111.096 L56.481,111.093 C55.594,111.093 55.52,110.694 55.52,110.241 z" fill-opacity="0" stroke="#000000" stroke-width="1"/>
          </g>
          <g>
            <path d="M58.536,77.163 L101.548,77.163 C102.099,77.163 102.548,76.714 102.548,76.163 C102.548,75.612 102.099,75.163 101.548,75.163 L58.536,75.163 C57.985,75.163 57.536,75.612 57.536,76.163 C57.536,76.714 57.985,77.163 58.536,77.163 z" fill="#000000"/>
            <path d="M58.536,77.163 L101.548,77.163 C102.099,77.163 102.548,76.714 102.548,76.163 C102.548,75.612 102.099,75.163 101.548,75.163 L58.536,75.163 C57.985,75.163 57.536,75.612 57.536,76.163 C57.536,76.714 57.985,77.163 58.536,77.163 z" fill-opacity="0" stroke="#000000" stroke-width="1"/>
          </g>
          <g>
            <path d="M58.536,83.651 L90.184,83.651 C90.735,83.651 91.184,83.202 91.184,82.651 C91.184,82.1 90.735,81.651 90.184,81.651 L58.536,81.651 C57.985,81.651 57.536,82.1 57.536,82.651 C57.536,83.206 57.985,83.651 58.536,83.651 z" fill="#000000"/>
            <path d="M58.536,83.651 L90.184,83.651 C90.735,83.651 91.184,83.202 91.184,82.651 C91.184,82.1 90.735,81.651 90.184,81.651 L58.536,81.651 C57.985,81.651 57.536,82.1 57.536,82.651 C57.536,83.206 57.985,83.651 58.536,83.651 z" fill-opacity="0" stroke="#000000" stroke-width="1"/>
          </g>
          <g>
            <path d="M106.579,81.651 L94.243,81.651 C93.692,81.651 93.243,82.1 93.243,82.651 C93.243,83.202 93.692,83.651 94.243,83.651 L106.579,83.651 C107.13,83.651 107.579,83.202 107.579,82.651 C107.579,82.1 107.13,81.651 106.579,81.651 z" fill="#000000"/>
            <path d="M106.579,81.651 L94.243,81.651 C93.692,81.651 93.243,82.1 93.243,82.651 C93.243,83.202 93.692,83.651 94.243,83.651 L106.579,83.651 C107.13,83.651 107.579,83.202 107.579,82.651 C107.579,82.1 107.13,81.651 106.579,81.651 z" fill-opacity="0" stroke="#000000" stroke-width="1"/>
          </g>
          <g>
            <path d="M58.536,90.147 L82.884,90.147 C83.435,90.147 83.884,89.698 83.884,89.147 C83.884,88.596 83.435,88.147 82.884,88.147 L58.536,88.147 C57.985,88.147 57.536,88.596 57.536,89.147 C57.536,89.698 57.985,90.147 58.536,90.147 z" fill="#000000"/>
            <path d="M58.536,90.147 L82.884,90.147 C83.435,90.147 83.884,89.698 83.884,89.147 C83.884,88.596 83.435,88.147 82.884,88.147 L58.536,88.147 C57.985,88.147 57.536,88.596 57.536,89.147 C57.536,89.698 57.985,90.147 58.536,90.147 z" fill-opacity="0" stroke="#000000" stroke-width="1"/>
          </g>
          <g>
            <path d="M96.352,88.147 L87.102,88.147 C86.551,88.147 86.102,88.596 86.102,89.147 C86.102,89.698 86.551,90.147 87.102,90.147 L96.352,90.147 C96.903,90.147 97.352,89.698 97.352,89.147 C97.352,88.592 96.907,88.147 96.352,88.147 z" fill="#000000"/>
            <path d="M96.352,88.147 L87.102,88.147 C86.551,88.147 86.102,88.596 86.102,89.147 C86.102,89.698 86.551,90.147 87.102,90.147 L96.352,90.147 C96.903,90.147 97.352,89.698 97.352,89.147 C97.352,88.592 96.907,88.147 96.352,88.147 z" fill-opacity="0" stroke="#000000" stroke-width="1"/>
          </g>
          <g>
            <path d="M90.184,94.639 L58.536,94.639 C57.985,94.639 57.536,95.088 57.536,95.639 C57.536,96.19 57.985,96.639 58.536,96.639 L90.184,96.639 C90.735,96.639 91.184,96.19 91.184,95.639 C91.184,95.084 90.742,94.639 90.184,94.639 z" fill="#000000"/>
            <path d="M90.184,94.639 L58.536,94.639 C57.985,94.639 57.536,95.088 57.536,95.639 C57.536,96.19 57.985,96.639 58.536,96.639 L90.184,96.639 C90.735,96.639 91.184,96.19 91.184,95.639 C91.184,95.084 90.742,94.639 90.184,94.639 z" fill-opacity="0" stroke="#000000" stroke-width="1"/>
          </g>
          <g>
            <path d="M68.434,101.131 L58.535,101.131 C57.985,101.131 57.535,101.58 57.535,102.131 C57.535,102.682 57.985,103.131 58.535,103.131 L68.434,103.131 C68.985,103.131 69.434,102.682 69.434,102.131 C69.434,101.58 68.992,101.131 68.434,101.131 z" fill="#000000"/>
            <path d="M68.434,101.131 L58.535,101.131 C57.985,101.131 57.535,101.58 57.535,102.131 C57.535,102.682 57.985,103.131 58.535,103.131 L68.434,103.131 C68.985,103.131 69.434,102.682 69.434,102.131 C69.434,101.58 68.992,101.131 68.434,101.131 z" fill-opacity="0" stroke="#000000" stroke-width="1"/>
          </g>
        </g>
        <g>
          <path d="M141.292,39.851 C149.86,39.851 156.806,48.836 156.806,59.921 C156.806,71.005 149.86,79.99 141.292,79.99 L120.031,79.99 L120.032,79.99 L99.121,92.489 L102.82,77.911 C96.584,74.336 94.335,66.626 94.073,59.921 C94.073,48.836 101.019,39.851 109.588,39.851 L141.292,39.851 z" fill="#FFFFFF"/>
          <g id="Layer_1">
            <path d="M115.463,35.814 L136.636,35.814 C145.04,35.814 152.807,40.297 157.012,47.579 C161.214,54.858 161.214,63.827 157.012,71.106 C152.807,78.384 145.04,82.871 136.636,82.871 L119.266,82.871 L102.941,94.571 C101.54,95.575 99.654,95.572 98.256,94.562 C96.858,93.552 96.263,91.761 96.778,90.117 L100.675,77.642 C95.6,73.54 92.455,67.512 91.996,61 C91.537,54.488 93.802,48.08 98.253,43.303 C102.701,38.527 108.937,35.814 115.464,35.814 z M105.259,74.437 L106.89,75.544 L102.999,87.999 L117.56,77.564 L136.636,77.564 C143.144,77.564 149.159,74.09 152.416,68.452 C155.67,62.813 155.67,55.869 152.416,50.231 C149.158,44.593 143.145,41.119 136.636,41.119 L115.463,41.119 C110.227,41.119 105.244,43.373 101.785,47.302 C98.326,51.232 96.724,56.461 97.39,61.656 C98.054,66.847 100.92,71.504 105.258,74.436 z" fill="#000000"/>
            <path d="M104.99,58.399 C104.468,60.605 105.837,62.817 108.043,63.338 C110.252,63.859 112.464,62.494 112.985,60.285 C113.506,58.079 112.138,55.867 109.932,55.346 C107.723,54.825 105.511,56.19 104.99,58.399" fill="#000000"/>
            <path d="M123.145,56.438 C121.543,58.04 121.543,60.643 123.145,62.245 C124.75,63.85 127.35,63.85 128.955,62.245 C130.557,60.643 130.557,58.04 128.955,56.438 C127.35,54.833 124.75,54.833 123.145,56.438" fill="#000000"/>
            <path d="M139.114,58.399 C138.593,60.605 139.961,62.817 142.167,63.338 C144.376,63.859 146.588,62.494 147.11,60.285 C147.631,58.079 146.263,55.867 144.057,55.346 C141.847,54.825 139.635,56.19 139.114,58.399" fill="#000000"/>
          </g>
        </g>
      </g>
    </g>
  </g>
</svg>
